<?xml version="1.0" encoding="UTF-8" standalone="no"?>
<!-- Created with Inkscape (http://www.inkscape.org/) -->

<svg
   width="210mm"
   height="233mm"
   viewBox="0 0 210 233"
   version="1.1"
   id="svg1"
   xmlns="http://www.w3.org/2000/svg"
   xmlns:svg="http://www.w3.org/2000/svg">
  <defs
     id="defs1" />
  <g
     id="layer1"
     style="fill:#1a1a1a">
    <path
       id="path108"
       style="fill:#1a1a1a;stroke-width:0.704413"
       d="m 60.315836,113.49505 c 0.384976,0 3.526416,4.31503 6.982227,9.58938 12.574521,19.19166 26.176923,35.78037 45.737337,55.77936 l 12.0342,12.30248 -6.87906,6.53373 c -12.6971,12.06098 -28.184198,21.25312 -39.939673,23.70515 -7.818924,1.63093 -7.760512,1.66567 -5.829323,-3.42299 5.93555,-15.64 1.205166,-33.46827 -10.472622,-39.47331 -4.990124,-2.56606 -14.625197,-3.80825 -17.335204,-2.23433 -1.574354,0.91439 -1.458515,1.03497 1.044254,1.07866 3.456956,0.0604 10.500683,3.16327 13.47602,5.93661 10.68987,9.96398 7.529393,33.49982 -5.212936,38.82391 -5.989729,2.50267 -12.921878,0.41142 -20.148695,-6.07969 -10.664046,-9.57842 -16.019843,-22.23009 -16.022665,-37.84709 -0.0027,-13.65184 4.050793,-25.09918 12.931223,-36.51531 6.16462,-7.92481 27.464808,-28.17656 29.634917,-28.17656 z M 90.487296,1.7271762 c -0.398234,0 -3.885088,1.8648701 -7.748558,4.1439486 C 58.239282,20.323402 45.948727,40.133073 46.025323,65.045991 c 0.03594,11.705344 2.270107,20.925224 8.003053,33.02763 l 4.170092,8.802419 -10.49605,7.92329 c -21.957923,16.57572 -32.06165,27.26119 -39.1087056,41.36364 -4.9999742,10.00588 -6.6093917,16.82368 -6.6093917,28.00044 0,10.44984 1.9745589,17.87732 6.738702,25.35477 6.1881283,9.71238 18.0540923,17.81796 30.4906763,20.82836 9.39256,2.27354 26.437141,1.87486 37.908997,-0.88741 17.365926,-4.18146 32.024554,-12.45775 47.113134,-26.59986 l 7.19686,-6.74558 7.8311,5.68346 c 13.6062,9.87508 30.25476,16.88942 40.08829,16.88942 10.30643,0 21.83803,-5.64829 26.78149,-13.11834 1.36373,-2.06076 2.4792,-3.93708 2.4792,-4.17006 0,-0.23296 -1.8093,0.5879 -4.0215,1.82432 -6.7279,3.76028 -12.73751,4.59184 -20.99895,2.90707 -3.91887,-0.79918 -9.90908,-2.75635 -13.31231,-4.34892 -6.94999,-3.25227 -19.48316,-11.3754 -24.86774,-16.11758 l -3.56196,-3.13547 3.15747,-4.697 c 10.22622,-15.21566 14.76518,-27.50051 14.76518,-39.95486 0,-9.85535 -2.07503,-16.4439 -6.98909,-22.18488 l -3.2194,-3.76009 6.67404,-1.03324 c 7.04423,-1.09033 9.89047,-2.6484 13.58059,-7.43349 l 2.26047,-2.93045 -7.79672,-0.0469 c -4.28806,-0.0266 -10.75571,-0.693593 -14.37169,-1.485882 -9.28438,-2.034275 -21.5264,-1.893384 -26.36459,0.304067 -4.18763,1.901955 -9.19387,7.355485 -10.68867,11.643445 -0.84159,2.41427 -0.76159,2.65742 0.67555,2.07472 3.20802,-1.30072 12.97363,-1.59576 16.97469,-0.51317 5.38056,1.45585 11.61778,7.31286 14.21349,13.34671 4.79684,11.15059 3.128,27.64348 -4.3338,42.81789 l -4.27326,8.68823 -2.49297,-1.77754 C 127.81949,171.45056 105.05455,146.33748 93.512685,131.33921 72.598484,104.16188 60.607124,79.812266 62.563898,68.492324 c 0.722296,-4.178532 1.95334,-5.868885 6.122341,-8.410338 l 3.270299,-1.9949 -4.483771,-0.0027 c -4.02196,-0.0027 -4.589041,-0.270069 -5.486706,-2.5865 -1.578188,-4.072438 -0.165332,-12.237441 3.434007,-19.852908 2.54092,-5.375978 5.020767,-8.653066 11.013345,-14.55744 l 7.73341,-7.619221 0.265436,8.941398 0.266901,8.942728 4.891004,1.162569 c 10.613036,2.521059 18.061616,10.652543 17.454866,19.056306 -0.26091,3.613316 -0.0357,4.012029 3.44913,6.122341 2.05028,1.241614 5.7351,2.92792 8.1888,3.746327 2.45373,0.818433 4.46037,2.044286 4.46037,2.724117 0,2.110126 -6.18179,6.788035 -10.95003,8.286486 -2.50085,0.785899 -7.38696,1.660402 -10.85925,1.944022 -10.732805,0.876605 -15.180661,4.614386 -15.180661,12.756493 0,4.086548 3.437201,12.081533 5.829296,13.559936 0.412105,0.25479 0.570249,-2.003205 0.352202,-5.017572 -0.838294,-11.589398 2.729336,-15.748256 16.127203,-18.800401 5.29816,-1.20695 10.5382,-3.08609 13.05231,-4.680492 4.41636,-2.800793 9.1436,-8.217558 9.1436,-10.47816 0,-0.742609 -1.97924,-2.040931 -4.46172,-2.926349 -6.25748,-2.231795 -11.03451,-7.228148 -13.5765,-14.1997 -1.42702,-3.913788 -3.36462,-6.966146 -6.00403,-9.46005 l -3.89765,-3.683042 4.04214,-12.050704 c 2.22314,-6.628321 3.86004,-12.0520877 3.63762,-12.0520877 -0.2223,0 -4.37112,2.7481577 -9.22065,6.1058347 -4.849542,3.35773 -9.076716,6.104477 -9.392631,6.104477 -0.315941,0 -0.573736,-4.014692 -0.573736,-8.922122 0,-4.9074047 -0.325419,-8.9234806 -0.723654,-8.9234806 z" />
  </g>
</svg>
