<?xml version="1.0" encoding="UTF-8" standalone="no"?>
<!-- Created with Inkscape (http://www.inkscape.org/) -->

<svg
   version="1.1"
   id="svg1"
   width="1128"
   height="354.66666"
   viewBox="0 0 1128 354.66666"
   xmlns="http://www.w3.org/2000/svg"
   xmlns:svg="http://www.w3.org/2000/svg">
  <defs
     id="defs1" />
  <g
     id="g1">
    <path
       style="fill:#333333"
       d="m 356.2545,338.48282 c -17.6552,-4.2736 -34.50095,-15.78116 -43.28571,-29.56906 -6.76329,-10.61515 -9.56557,-21.16001 -9.56557,-35.9948 0,-15.86676 2.28432,-25.54438 9.3824,-39.74892 10.00416,-20.02013 24.3463,-35.18963 55.51821,-58.72088 l 14.90062,-11.24827 -5.91964,-12.49648 c -8.13864,-17.18085 -11.31016,-30.2693 -11.36123,-46.88645 -0.10872,-35.366889 17.33847,-63.488529 52.11842,-84.005279 5.48467,-3.23541 10.43467,-5.88257 11,-5.88257 0.56534,0 1.02788,5.7 1.02788,12.66666 0,6.96667 0.36695,12.66667 0.81544,12.66667 0.44849,0 6.4482,-3.9 13.3327,-8.66667 6.8845,-4.76666 12.77562,-8.66666 13.09139,-8.66666 0.31576,0 -2.0081,7.69884 -5.16413,17.10853 l -5.73824,17.10853 5.5321,5.22721 c 3.74694,3.54042 6.49729,7.8743 8.52314,13.4304 3.60862,9.89696 10.39103,16.99073 19.27427,20.15905 3.52419,1.25694 6.33333,3.09917 6.33333,4.15338 0,3.209179 -6.70993,10.899059 -12.97952,14.875119 -3.56907,2.26344 -11.00858,4.93114 -18.52994,6.64457 -19.01993,4.33289 -24.08455,10.23705 -22.89448,26.6896 0.30953,4.27925 0.0842,7.48466 -0.50082,7.12312 -3.39588,-2.09877 -8.27472,-13.44885 -8.27472,-19.25023 0,-11.55868 6.31387,-16.86419 21.5504,-18.10866 4.92933,-0.40261 11.86717,-1.64486 15.41743,-2.76056 6.7691,-2.12724 15.54499,-8.76879 15.54499,-11.76436 0,-0.9651 -2.85,-2.705319 -6.33334,-3.867169 -3.48333,-1.16184 -8.71474,-3.55457 -11.62535,-5.31717 -4.94712,-2.99586 -5.26621,-3.56237 -4.89584,-8.69191 0.86138,-11.93017 -9.71196,-23.47411 -24.77845,-27.05305 l -6.94448,-1.64961 -0.37794,-12.69506 -0.37794,-12.69507 -10.97899,10.81738 c -8.5072,8.38197 -12.02706,13.03483 -15.63421,20.66667 -5.10979,10.81108 -7.11414,22.40132 -4.87373,28.18262 1.27437,3.28847 2.07758,3.66718 7.78726,3.67165 l 6.36634,0.005 -4.64309,2.83046 c -5.91841,3.607899 -7.66535,6.007939 -8.69074,11.939859 -2.77788,16.07005 14.2447,50.63822 43.93492,89.2197 16.38506,21.29186 48.70242,56.94254 56.93922,62.81213 l 3.54031,2.52284 6.06513,-12.33415 c 10.59292,-21.54193 12.9631,-44.95517 6.1534,-60.78476 -3.68491,-8.56579 -12.53998,-16.88074 -20.1783,-18.94749 -5.68001,-1.53688 -19.54401,-1.1174 -24.09819,0.72913 -2.04019,0.82721 -2.15227,0.4825 -0.95749,-2.94485 2.12204,-6.08729 9.229,-13.82901 15.17384,-16.52909 6.86838,-3.11955 24.24733,-3.32035 37.42766,-0.43246 5.13333,1.12475 14.31395,2.07433 20.40138,2.11018 l 11.06806,0.0652 -3.20928,4.16155 c -5.23859,6.79299 -9.27824,9.00408 -19.27839,10.55196 l -9.47395,1.46644 4.56875,5.33756 c 6.97611,8.15002 9.92343,17.50424 9.92343,31.49511 0,17.68043 -6.44538,35.12027 -20.96271,56.72071 l -4.48056,6.66667 5.05496,4.45191 c 7.64403,6.7321 25.43699,18.26438 35.30331,22.88139 4.83129,2.26083 13.33597,5.03885 18.89929,6.17338 11.72809,2.3917 20.25806,1.21056 29.80912,-4.12762 3.14046,-1.75524 5.70992,-2.92071 5.70992,-2.58995 0,0.33077 -1.584,2.99498 -3.52,5.92047 -7.0178,10.60462 -23.38862,18.62375 -38.01984,18.62375 -13.95989,0 -37.59493,-9.95737 -56.91056,-23.97624 l -11.11706,-8.06853 -10.21627,9.57541 c -21.42008,20.07642 -42.22992,31.82549 -66.88294,37.76158 -16.28568,3.92135 -40.48148,4.48809 -53.81538,1.2605 z m 20.87904,-11.68744 c 18.08926,-7.55818 22.57498,-40.97075 7.39943,-55.11585 -4.22387,-3.93707 -14.22217,-8.34168 -19.12975,-8.42736 -3.55298,-0.062 -3.7188,-0.23314 -1.48379,-1.53121 3.84718,-2.2344 17.52632,-0.47192 24.61039,3.1709 16.57804,8.52487 23.29271,33.83537 14.86649,56.03824 -2.74157,7.22397 -2.82526,7.17482 8.27461,4.85954 16.68833,-3.48097 38.6758,-16.53093 56.70085,-33.65296 l 9.76405,-9.27489 -17.0828,-17.46584 c -27.76837,-28.39101 -47.07812,-51.94052 -64.9292,-79.18539 -4.90593,-7.48758 -9.36704,-13.61379 -9.91357,-13.61379 -3.08071,0 -33.31742,28.74978 -42.0688,40 -12.60687,16.2066 -18.36272,32.45931 -18.35889,51.83975 0.004,22.17021 7.6077,40.12902 22.74659,53.72673 10.25933,9.21491 20.10124,12.18497 28.60439,8.63213 z M 441.25299,49.387311 c 0.44303,-1.76521 1.21734,-4.28266 1.72068,-5.59434 0.6989,-1.82129 -0.39584,-1.45671 -4.63251,1.5428 -6.14959,4.35382 -6.71137,5.44291 -3.27128,6.3419 4.55508,1.19037 5.38683,0.88227 6.18311,-2.29036 z M 654.97067,306.7316 c -6.18575,-2.29128 -6.35679,-2.44564 -5.051,-4.55845 0.77658,-1.25653 1.95593,-1.33078 4.68097,-0.29472 4.67612,1.77786 13.57248,1.78036 16.89023,0.005 3.21457,-1.72039 3.35504,-6.13078 0.24568,-7.71407 -1.28333,-0.65348 -5.33333,-1.91369 -9,-2.80047 -9.40809,-2.27534 -12.66667,-4.69801 -12.66667,-9.41734 0,-5.23738 4.35224,-9.04402 11.57938,-10.1278 7.31835,-1.09745 17.8782,1.56471 16.84869,4.24759 -0.54028,1.40794 -2.40067,1.65046 -7.79626,1.01631 -9.70475,-1.1406 -13.96514,0.0759 -13.96514,3.98741 0,3.05279 4.40959,6.18862 8.70242,6.18862 3.73182,0 12.72915,4.35887 14.03541,6.79964 4.93229,9.21606 -11.24493,17.57975 -24.50371,12.66852 z m 121.78697,0.49642 c -2.55507,-0.59886 -6.00507,-2.66934 -7.66667,-4.60107 -2.69647,-3.13482 -3.02109,-4.92159 -3.02109,-16.62855 0,-12.75793 0.64078,-14.73496 4.77572,-14.73496 0.30669,0 0.55762,5.72727 0.55762,12.72727 0,11.73513 0.25512,12.98239 3.27272,16 4.22643,4.22643 12.7964,4.53693 16.72728,0.60606 1.46666,-1.46667 2.69449,-3.41667 2.72851,-4.33333 0.034,-0.91667 0.12081,-6.61667 0.19286,-12.66667 0.12657,-10.62722 0.23744,-11 3.27149,-11 3.06063,0 3.13997,0.2966 3.12081,11.66667 -0.0111,6.60059 -0.73484,13.0583 -1.66666,14.87146 -3.53845,6.88521 -12.91798,10.29037 -22.29259,8.09312 z m 63.60731,0.30696 -9.03827,-0.39513 0.3716,-17.60487 0.3716,-17.60488 7.33334,-0.44207 c 17.85725,-1.07647 29.35461,5.78282 29.31367,17.48847 -0.0481,13.76432 -8.68566,19.41823 -28.35194,18.55848 z m 15.02354,-6.26393 c 8.66303,-4.47983 10.39772,-12.63184 4.17093,-19.60083 -3.52335,-3.94331 -4.63494,-4.34667 -13.33334,-4.83817 l -9.48953,-0.53621 v 12.59491 c 0,6.9272 0.4,12.99491 0.88889,13.4838 1.65889,1.65889 13.89061,0.89902 17.76305,-1.1035 z m 90.01473,5.79647 c -5.99097,-2.20184 -11.20611,-7.71332 -12.76039,-13.48545 -2.67567,-9.93671 5.69915,-19.86298 18.36037,-21.76165 11.96957,-1.79495 24.40002,7.03253 24.40002,17.32766 0,5.69611 -4.14202,12.96342 -9.02211,15.8296 -5.06212,2.97309 -15.69307,4.03215 -20.97789,2.08984 z m 19.33282,-7.13696 c 5.99716,-5.42735 5.51702,-15.56522 -0.9792,-20.67515 -4.07008,-3.20153 -13.41311,-3.55823 -18.8987,-0.72152 -7.98511,4.12926 -8.5451,15.22562 -1.08516,21.50274 3.63341,3.05732 5.08518,3.43636 11.21464,2.92806 4.28291,-0.35517 8.10149,-1.54368 9.74842,-3.03413 z m -245.33282,-7.93078 v -15.26365 l -7,-0.40301 c -5.15422,-0.29675 -7,-0.93038 -7,-2.40302 0,-1.67099 2.73871,-2 16.6484,-2 14.79555,0 16.69842,0.25969 17.09777,2.33334 0.38456,1.99686 -0.62221,2.33333 -6.98174,2.33333 h -7.4311 v 15.33333 c 0,14.44445 -0.15459,15.33333 -2.66667,15.33333 -2.51137,0 -2.66666,-0.88888 -2.66666,-15.26365 z m 178.66666,-2.879 c 0,-15.99593 0.24955,-18.04689 2.10905,-17.33333 1.15998,0.44513 2.35998,0.80932 2.66667,0.80932 0.30669,0 0.55762,7.8 0.55762,17.33333 0,16.44445 -0.13676,17.33333 -2.66667,17.33333 -2.53602,0 -2.66667,-0.88888 -2.66667,-18.14265 z m -130,-79.0991 c -5.87064,-1.41166 -9.28757,-3.52662 -13.18952,-8.16382 -2.89797,-3.44405 -3.47714,-5.45886 -3.47714,-12.09627 0,-4.46892 0.87713,-9.66011 1.99869,-11.82897 2.41626,-4.67252 13.90096,-10.42524 29.33464,-14.69379 16.51754,-4.56832 20.58065,-6.50175 21.51882,-10.23975 1.32204,-5.26742 -0.29762,-19.46238 -2.76512,-24.234 -2.71962,-5.25917 -11.0335,-9.43027 -18.88038,-9.47236 -7.16168,-0.0384 -9.32441,2.61496 -10.30059,12.63739 -0.85731,8.80187 -3.84991,12.66666 -9.8081,12.66666 -5.74439,0 -8.4313,-2.33779 -8.4313,-7.3358 0,-6.37587 6.43449,-12.43193 20.74085,-19.52101 10.06102,-4.98543 12.59276,-5.69221 20.39005,-5.69221 11.36416,0 19.35043,4.05298 23.4138,11.88236 2.57884,4.96895 2.76866,7.55045 2.7783,37.78445 l 0.0103,32.45111 3.27479,2.65179 c 3.12732,2.53237 5.88205,2.65064 11.05854,0.47479 4.41608,-1.85623 2.38543,1.91672 -3.21515,5.97376 -8.2574,5.98163 -14.35073,7.47419 -19.5458,4.78771 -2.30665,-1.19281 -5.18037,-4.1086 -6.38605,-6.47952 -1.20568,-2.37092 -2.37606,-4.52099 -2.60086,-4.77794 -0.2248,-0.25695 -2.6985,1.36569 -5.4971,3.60587 -9.37605,7.50517 -22.26533,11.58085 -30.42171,9.61955 z m 25.73288,-11.29822 c 1.98025,-1.03033 5.10046,-3.47817 6.93379,-5.43966 3.12447,-3.34288 3.33333,-4.45779 3.33333,-17.79335 0,-16.42151 0.93849,-15.76048 -14.27743,-10.05627 -12.18129,4.56657 -17.27382,8.27477 -19.53967,14.22808 -5.29708,13.91762 9.85881,26.18471 23.54998,19.0612 z m 263.40714,11.154 c -13.3526,-2.64271 -25.8048,-12.53299 -31.6236,-25.11748 -2.3893,-5.16728 -2.8498,-8.6455 -2.8498,-21.52458 0,-14.66566 0.1981,-15.76376 4.3741,-24.24642 8.3308,-16.92219 23.3039,-26.39221 41.729,-26.39221 9.8441,0 17.3081,2.67235 23.6955,8.48381 4.9943,4.54387 9.7684,15.3043 10.5335,23.74153 l 0.7005,7.72554 -31.8496,0.35789 -31.8497,0.3579 0.4554,7.27609 c 0.9493,15.16958 9.2304,29.12185 20.7825,35.01532 10.0389,5.12146 29.9036,2.45548 38.2961,-5.13962 1.2639,-1.14383 2.9919,-1.65081 3.8401,-1.12663 2.2158,1.36944 -8.6573,12.16154 -16.0407,15.92125 -5.9145,3.01169 -17.9749,6.1925 -22.399,5.9075 -1.2472,-0.0803 -4.7547,-0.6383 -7.7943,-1.23989 z m 27.2873,-68.50867 c 0.5978,-7.31204 -3.1242,-16.15079 -8.5408,-20.28227 -6.057,-4.61986 -15.4136,-4.9023 -22.2585,-0.67191 -5.2854,3.26656 -11.1569,13.57905 -12.5225,21.9939 l -0.7988,4.92271 21.8466,-0.36722 21.8466,-0.36723 z m -933.98667,64.83643 c -11.61984,-4.14602 -20.91652,-12.20612 -26.00818,-22.54876 -4.20831,-8.54829 -4.43247,-9.74674 -4.43247,-23.69832 0,-17.12193 2.02356,-22.73425 11.92158,-33.06439 22.10662,-23.07175 61.49594,-18.47124 77.36878,9.03636 9.71188,16.83065 6.90921,40.90528 -6.69475,57.50712 -2.96074,3.6132 -7.8792,7.27562 -13.46137,10.02371 -7.46462,3.67482 -10.53708,4.39636 -20.29846,4.76695 -8.66663,0.32902 -13.20177,-0.16964 -18.39513,-2.02267 z m 26.64701,-3.09943 c 1.60179,-0.82003 5.18168,-3.66068 7.95531,-6.31254 18.05342,-17.26087 10.99808,-69.09091 -10.66681,-78.36069 -8.37564,-3.5837 -19.97032,-1.03567 -25.88748,5.689 -9.03407,10.26695 -11.65534,30.00629 -6.62582,49.89536 3.20589,12.67757 9.81959,23.8725 16.51514,27.95496 4.77569,2.91188 14.12943,3.47877 18.70966,1.13391 z m 121.24568,3.16034 c -12.02661,-0.23983 -20.33334,-0.936 -20.33334,-1.70409 0,-0.71423 1.08532,-1.2986 2.41183,-1.2986 1.3265,0 3.57635,-0.85152 4.99965,-1.89226 2.20111,-1.6095 2.372,-2.46405 1.14355,-5.71858 -1.67779,-4.44496 -17.89249,-27.05583 -19.40227,-27.05583 -1.28383,0 -18.90208,20.9619 -21.01223,25 -2.24059,4.2877 0.17235,8.02106 5.87568,9.09101 9.76371,1.83169 3.95572,3.24232 -13.34954,3.24232 -9.9,0 -17.99829,-0.45 -17.9962,-1 0.002,-0.55 3.44459,-2.8 7.65001,-5 5.97962,-3.12814 10.62866,-7.45244 21.32953,-19.83959 7.52583,-8.71178 13.68333,-16.30412 13.68333,-16.87187 0,-1.72076 -26.71738,-37.78929 -29.79687,-40.22584 -1.57839,-1.24886 -4.92367,-2.76046 -7.43395,-3.35911 -2.51028,-0.59866 -4.81028,-1.82687 -5.11111,-2.72936 -0.41955,-1.25864 5.06984,-1.64089 23.56415,-1.64089 20.54321,0 24.11111,0.29596 24.11111,2 0,1.32806 -1.32812,2 -3.95309,2 -4.89134,0 -7.54414,3.95672 -5.37288,8.01377 2.34372,4.37927 13.13058,19.49755 15.04522,21.08656 1.38589,1.15019 3.41685,-0.66658 9.32399,-8.34064 10.20096,-13.25224 11.62376,-16.48693 8.31582,-18.90575 -1.39447,-1.01967 -3.92073,-1.85394 -5.6139,-1.85394 -1.84755,0 -3.07849,-0.7997 -3.07849,-2 0,-1.67901 2.88888,-2 18,-2 14.46999,0 18,0.36312 18,1.85161 0,1.03213 -1.91786,2.21406 -4.33334,2.67055 -2.38333,0.45041 -6.1337,1.91737 -8.33416,3.25991 -4.93978,3.01386 -27.35684,28.54708 -27.26752,31.05794 0.068,1.91091 3.16442,6.37528 20.30929,29.28145 9.94402,13.28557 17.42559,19.85648 22.62573,19.87171 1.28333,0.004 2.33333,0.90683 2.33333,2.00683 0,1.27286 -1.0907,1.89241 -3,1.70408 -1.65,-0.16275 -12.15,-0.47838 -23.33333,-0.70139 z m 266.65823,-0.66936 c 0.30092,-0.91667 2.60092,-1.83822 5.11111,-2.0479 6.80878,-0.56873 11.68469,-2.88765 12.81679,-6.09549 1.14175,-3.23519 1.69135,-101.241969 0.68014,-121.285769 -0.8023,-15.90279 -2.29268,-18.39767 -11.64237,-19.48913 -3.52588,-0.41161 -6.65867,-1.49837 -6.96174,-2.41504 -0.43447,-1.31406 10.33283,-1.66667 50.89339,-1.66667 h 51.44445 v 16.66667 c 0,12.96812 -0.39301,16.66667 -1.77101,16.66667 -1.03868,0 -2.42834,-2.84776 -3.36068,-6.88688 -0.87433,-3.78778 -2.8353,-8.90233 -4.35772,-11.36566 -4.76452,-7.70914 -8.74432,-8.91389 -31.38894,-9.50193 -19.36036,-0.50276 -20.27399,-0.40841 -21.69134,2.23992 -0.99381,1.85695 -1.36211,12.95745 -1.12166,33.80633 l 0.35801,31.041549 16.9179,-0.0117 c 21.71693,-0.015 23.80906,-1.22847 26.99088,-15.65497 0.44478,-2.01666 1.54726,-3.66676 2.44996,-3.66687 1.24007,-1.6e-4 1.60035,5.3913 1.47391,22.05624 -0.092,12.13105 -0.50213,22.39122 -0.91129,22.80039 -1.69198,1.69198 -3.58802,-1.32241 -3.58802,-5.70434 0,-3.37127 -1.06125,-5.75179 -3.77316,-8.4637 -4.41173,-4.41173 -12.09549,-5.77027 -28.89351,-5.10856 l -10.66667,0.42018 v 32.29832 c 0,31.4578 0.076,32.37428 2.92077,35.21707 2.07976,2.07831 5.05515,3.09574 10.33334,3.53344 5.10582,0.42342 7.41256,1.18572 7.41256,2.4496 0,1.50347 -5.43877,1.8349 -30.11111,1.8349 -23.4918,0 -29.99084,-0.36638 -29.56399,-1.66667 z m 106.34177,0.39375 c 0,-0.7001 2.25,-1.6761 5,-2.16888 9.91842,-1.77732 9.66666,-0.71644 9.66666,-40.73411 0,-35.62332 -0.0117,-35.77017 -3,-37.70306 -1.65,-1.06724 -4.65,-2.34611 -6.66666,-2.84194 -5.66715,-1.39336 -4.41258,-2.59216 4.66666,-4.45923 4.58334,-0.94253 11.45994,-2.80894 15.28134,-4.14758 l 6.948,-2.4339 0.38533,10.56062 0.38533,10.56062 4.66667,-6.29763 c 6.51408,-8.7907 16.00508,-14.42222 24.10149,-14.30069 11.92553,0.17899 17.36503,8.22427 10.14591,15.00628 -3.87155,3.63713 -7.37457,3.65872 -14.22576,0.0877 -6.71502,-3.50007 -12.80284,-2.64219 -17.70327,2.49468 -5.7876,6.06684 -6.31837,9.45293 -6.31837,40.30829 0,31.86798 0.33834,33.32213 7.7619,33.35997 4.91811,0.0251 9.57143,1.38828 9.57143,2.80397 0,0.64781 -11.4,1.17783 -25.33333,1.17783 -15.19839,0 -25.33333,-0.50925 -25.33333,-1.27292 z m 176,0.0568 c 0,-0.66887 2.36545,-1.61578 5.25657,-2.10423 2.89112,-0.48845 5.94171,-1.71362 6.77909,-2.7226 1.82249,-2.19597 2.96961,-43.23534 1.72554,-61.73294 -0.9401,-13.97803 -2.21233,-16.22409 -9.18978,-16.22409 -3.1746,0 -4.57142,-0.61111 -4.57142,-2 0,-1.1 1.10402,-2 2.45338,-2 2.08217,0 15.18775,-3.17094 25.01528,-6.05253 2.53044,-0.74197 2.88177,-0.14794 3.62526,6.12962 0.87758,7.40978 1.81451,9.40631 3.31191,7.05744 0.51012,-0.8002 4.43256,-3.90171 8.71653,-6.89226 17.54648,-12.24881 37.77875,-9.92585 45.62022,5.23787 2.00784,3.88273 2.22841,3.96717 5.01217,1.91874 11.60208,-8.53738 19.27653,-12.75725 25.58133,-14.06612 16.11936,-3.34636 28.57785,3.54854 32.52555,18.00057 0.86045,3.15042 1.45985,18.20983 1.46425,36.79335 0.01,34.52709 -0.021,34.39966 8.3407,36.38631 2.0167,0.47913 3.6667,1.47458 3.6667,2.21211 0,0.85907 -7.7861,1.2093 -21.66662,0.97459 -13.56031,-0.22929 -21.55847,-0.86521 -21.37749,-1.69969 0.15905,-0.73334 2.54435,-1.63334 5.30068,-2 8.15711,-1.08512 8.56527,-2.96576 8.10259,-37.33333 -0.3544,-26.32444 -0.7161,-30.63464 -2.95215,-35.17995 -6.1533,-12.50807 -25.13471,-12.60027 -36.74029,-0.17847 -3.33324,3.56766 -3.33335,3.56868 -3.73605,34.92458 -0.45266,35.24632 -0.12694,36.74569 8.3269,38.33164 2.60837,0.48933 4.74248,1.46251 4.74248,2.16261 0,0.75716 -8.95891,1.27292 -22.11111,1.27292 -17.06211,0 -21.98462,-0.37948 -21.55716,-1.66185 0.30467,-0.91402 2.81716,-2.02972 5.58332,-2.47935 2.76615,-0.44962 5.55768,-1.65179 6.20341,-2.67148 1.60734,-2.53823 1.53139,-60.76796 -0.0866,-66.40963 -4.25302,-14.82941 -22.51687,-17.29465 -35.5575,-4.79953 l -5.80767,5.56473 v 32.13331 c 0,35.564 -0.0704,35.26342 8.63829,36.89717 2.62303,0.49208 4.41706,1.46438 3.98674,2.16066 -1.01032,1.63473 -44.62503,1.68343 -44.62503,0.0498 z M 18.069884,204.67847 c 0,-0.6884 2.721677,-1.65978 6.04817,-2.15862 3.326493,-0.49884 7.376493,-1.98345 9,-3.29913 l 2.95183,-2.39216 v -67.31017 c 0,-76.830629 0.790719,-71.849539 -11.721842,-73.841229 -3.733054,-0.59421 -6.822797,-1.68039 -6.866097,-2.41372 -0.05086,-0.86138 18.025975,-1.45698 51.070058,-1.68265 46.344217,-0.31651 51.072187,-0.14971 50.333327,1.77572 -0.44849,1.16876 -0.81545,8.67596 -0.81545,16.68265 0,8.00669 -0.55108,14.55761 -1.22462,14.55761 -0.67355,0 -2.4821,-3.77871 -4.01902,-8.39713 -5.48944,-16.49578 -9.0911,-18.49527 -34.831767,-19.33709 -15.713917,-0.51391 -18.370402,-0.29615 -20.333334,1.66678 -1.99586,1.99586 -2.257922,5.9609 -2.257922,34.16268 v 31.904759 h 17.153522 c 21.548612,0 24.205593,-1.58659 27.443851,-16.38786 0.44778,-2.04666 1.39655,-3.36125 2.10838,-2.92131 0.75186,0.46467 1.29425,9.98662 1.29425,22.7212 0,17.6592 -0.35473,21.92131 -1.82445,21.92131 -1.13157,0 -2.106468,-2.1027 -2.567068,-5.53678 -0.46462,-3.46399 -2.03773,-6.83329 -4.20206,-9 -3.332491,-3.33616 -4.123478,-3.47933 -21.559042,-3.90221 l -18.099627,-0.43898 0.459455,31.16668 c 0.570535,38.70166 0.372428,38.20674 16.151929,40.35144 3.497527,0.47537 6.012116,1.42581 5.587977,2.11208 -1.027302,1.66221 -59.28045,1.65841 -59.28045,-0.004 z M 434.40322,86.380401 c -0.91667,-0.36988 -1.66667,-1.1186 -1.66667,-1.66381 0,-1.34104 7.8444,-0.11693 8.76167,1.36724 0.766,1.2394 -4.23986,1.44864 -7.095,0.29657 z"
       id="path1" />
  </g>
</svg>
