<?xml version="1.0" encoding="UTF-8" standalone="no"?>
<!-- Created with Inkscape (http://www.inkscape.org/) -->

<svg
   version="1.1"
   id="svg1"
   width="1128"
   height="354.66666"
   viewBox="0 0 1128 354.66666"
   xmlns="http://www.w3.org/2000/svg"
   xmlns:svg="http://www.w3.org/2000/svg">
  <defs
     id="defs1" />
  <g
     id="g1">
    <path
       id="path65"
       style="fill:#1a1a1a"
       d="m 460.84766,42.685547 c 0.39851,-0.01172 0.41088,0.367523 0.12695,1.107422 -0.50334,1.31168 -1.27767,3.82854 -1.7207,5.59375 -0.79628,3.17263 -1.62852,3.481385 -6.1836,2.291015 -3.44009,-0.89899 -2.8781,-1.987977 3.27149,-6.341796 2.51552,-1.780961 3.92342,-2.633266 4.50586,-2.650391 z M 404.21094,172.59766 c 0.54653,0 5.00618,6.1257 9.91211,13.61328 17.85108,27.24487 37.16131,50.79453 64.92968,79.18554 l 17.08399,17.46485 -9.76563,9.27539 c -18.02505,17.12203 -40.01089,30.17137 -56.69921,33.65234 -11.09988,2.31528 -11.01697,2.3646 -8.2754,-4.85937 8.42622,-22.20287 1.71086,-47.51224 -14.86718,-56.03711 -7.08407,-3.64282 -20.7622,-5.40628 -24.60938,-3.17188 -2.23501,1.29807 -2.07056,1.46925 1.48242,1.53125 4.90758,0.0857 14.90699,4.49067 19.13086,8.42774 15.17555,14.1451 10.68887,47.55705 -7.40039,55.11523 -8.50315,3.55284 -18.34418,0.58405 -28.60351,-8.63086 -15.13889,-13.59771 -22.7421,-31.5583 -22.7461,-53.72851 -0.004,-19.38044 5.75056,-35.63129 18.35742,-51.83789 8.7514,-11.25022 38.98961,-40 42.07032,-40 z M 447.04297,13.929688 c -0.56533,0 -5.51533,2.647402 -11,5.882812 -34.77995,20.51675 -52.22786,48.638969 -52.11914,84.00586 0.0511,16.61715 3.22269,29.70587 11.36133,46.88672 l 5.91992,12.49609 -14.90039,11.24805 c -31.17191,23.53125 -45.51537,38.70057 -55.51953,58.7207 -7.09808,14.20454 -9.38282,23.88324 -9.38282,39.75 0,14.83479 2.80312,25.37899 9.56641,35.99414 8.78476,13.7879 25.62996,25.29476 43.28516,29.56836 13.3339,3.22759 37.53072,2.66159 53.8164,-1.25976 24.65302,-5.93609 45.46275,-17.6853 66.88281,-37.76172 l 10.2168,-9.57617 11.11719,8.06835 c 19.31563,14.01889 42.95027,23.97657 56.91016,23.97657 14.63122,0 31.00173,-8.01843 38.01953,-18.62305 1.936,-2.92549 3.51953,-5.58915 3.51953,-5.91992 0,-0.33076 -2.56853,0.8346 -5.70899,2.58984 -9.55106,5.33818 -18.08245,6.51866 -29.81054,4.12696 -5.56332,-1.13453 -14.06715,-3.913 -18.89844,-6.17383 -9.86632,-4.61701 -27.6587,-16.14876 -35.30274,-22.88086 l -5.05664,-4.45117 4.48243,-6.66797 c 14.51733,-21.60044 20.96093,-39.04028 20.96093,-56.72071 0,-13.99087 -2.94576,-23.34412 -9.92187,-31.49414 l -4.57031,-5.33789 9.47461,-1.46679 c 10.00015,-1.54788 14.0407,-3.75975 19.27929,-10.55274 l 3.20899,-4.16015 -11.06836,-0.0664 c -6.08743,-0.0359 -15.26902,-0.98463 -20.40235,-2.10938 -13.18033,-2.88789 -30.55935,-2.68791 -37.42773,0.43164 -5.94484,2.70008 -13.05179,10.44201 -15.17383,16.5293 -1.19478,3.42735 -1.0812,3.77252 0.95899,2.94531 4.55418,-1.84653 18.41764,-2.26539 24.09765,-0.72851 7.63832,2.06675 16.49283,10.38147 20.17774,18.94726 6.8097,15.82959 4.44057,39.24323 -6.15235,60.78516 l -6.0664,12.33398 -3.53907,-2.52343 c -8.2368,-5.86959 -40.55439,-41.52064 -56.93945,-62.8125 -29.69022,-38.58148 -46.71343,-73.1487 -43.93555,-89.21875 1.02539,-5.93192 2.773,-8.33156 8.69141,-11.939456 l 4.64258,-2.832031 -6.36524,-0.0039 c -5.70968,-0.0045 -6.51469,-0.383405 -7.78906,-3.671875 -2.24041,-5.7813 -0.23479,-17.372514 4.875,-28.183594 3.60715,-7.63184 7.12757,-12.284045 15.63477,-20.666016 l 10.97851,-10.816406 0.37696,12.69336 0.3789,12.695312 6.94336,1.650391 c 15.06649,3.57894 25.64068,15.122564 24.7793,27.052734 -0.37037,5.12954 -0.0506,5.695546 4.89648,8.691406 2.91061,1.7626 8.14167,4.15652 11.625,5.31836 3.48334,1.16185 6.33203,2.902095 6.33203,3.867195 0,2.99557 -8.77582,9.63643 -15.54492,11.76367 -3.55026,1.1157 -10.48668,2.35715 -15.41601,2.75976 -15.23653,1.24447 -21.55079,6.5507 -21.55079,18.10938 10e-6,5.80138 4.87952,17.15123 8.2754,19.25 0.58502,0.36154 0.80953,-2.8438 0.5,-7.12305 -1.19007,-16.45255 3.8746,-22.35656 22.89453,-26.68945 7.52136,-1.71343 14.96022,-4.38109 18.52929,-6.64453 6.26959,-3.97606 12.98047,-11.66582 12.98047,-14.875006 0,-1.05421 -2.80979,-2.897357 -6.33398,-4.154297 -8.88324,-3.16832 -15.66482,-10.261244 -19.27344,-20.158203 -2.02585,-5.556101 -4.7765,-9.889268 -8.52344,-13.429688 l -5.5332,-5.228516 5.73828,-17.107422 c 3.15603,-9.409688 5.47982,-17.109374 5.16406,-17.109374 -0.31577,0 -6.20534,3.901308 -13.08984,8.667968 -6.8845,4.76667 -12.88549,8.666016 -13.33398,8.666016 -0.44849,0 -0.81446,-5.699346 -0.81446,-12.666016 0,-6.96666 -0.462,-12.667969 -1.02734,-12.667968 z M 68.552734,51.580078 c -33.044083,0.22567 -51.121172,0.822214 -51.070312,1.683594 0.0433,0.73333 3.13218,1.819852 6.865234,2.414062 12.512561,1.99169 11.722656,-2.990787 11.722656,73.839846 v 67.31054 l -2.953124,2.39258 c -1.623509,1.31568 -5.673508,2.79999 -9,3.29883 -3.326357,0.49882 -6.046649,1.46981 -6.046876,2.1582 10e-4,1.66237 58.252005,1.66602 59.279297,0.004 0.424139,-0.68627 -2.090363,-1.63596 -5.58789,-2.11133 -15.779501,-2.1447 -15.579856,-1.6499 -16.150391,-40.35156 L 55.150391,131.05273 73.25,131.49023 c 17.435564,0.42288 18.228056,0.56619 21.560547,3.90235 2.16433,2.16671 3.736552,5.53601 4.201172,9 0.4606,3.43408 1.434851,5.53711 2.566401,5.53711 1.46972,0 1.82422,-4.26072 1.82422,-21.91992 0,-12.73458 -0.54112,-22.25799 -1.29296,-22.72266 -0.71184,-0.43994 -1.6616,0.87521 -2.10938,2.92187 -3.238258,14.80127 -5.894747,16.38868 -27.443359,16.38868 H 55.402344 V 92.691406 c 0,-28.20178 0.263905,-32.166249 2.259765,-34.162109 1.962932,-1.96293 4.618115,-2.179926 20.332032,-1.666016 25.740669,0.84182 29.342589,2.840158 34.832029,19.335938 1.53692,4.61842 3.34598,8.398437 4.01953,8.398437 0.67354,0 1.22461,-6.551902 1.22461,-14.558594 0,-8.006689 0.36597,-15.51288 0.81446,-16.68164 0.73886,-1.92543 -3.98782,-2.093854 -50.332036,-1.777344 z m 547.406246,1.017578 c -40.56056,0 -51.329,0.351956 -50.89453,1.666016 0.30307,0.91667 3.43701,2.002452 6.96289,2.414062 9.34969,1.09146 10.84028,3.587445 11.64258,19.490235 1.01121,20.0438 0.46206,118.049971 -0.67969,121.285151 -1.1321,3.20786 -6.00959,5.52698 -12.81835,6.09571 -2.51021,0.20968 -4.81041,1.13216 -5.11133,2.04883 -0.42685,1.30029 6.07265,1.66601 29.56445,1.66601 24.67234,0 30.11133,-0.33247 30.11133,-1.83594 0,-1.26388 -2.30629,-2.02579 -7.41211,-2.44921 -5.27819,-0.4377 -8.25423,-1.4549 -10.33399,-3.53321 -2.84477,-2.84279 -2.91992,-3.75899 -2.91992,-35.21679 v -32.29883 l 10.66602,-0.41992 c 16.79802,-0.66171 24.4828,0.69764 28.89453,5.10937 2.71191,2.71191 3.77148,5.09162 3.77148,8.46289 0,4.38193 1.89787,7.39706 3.58985,5.70508 0.40916,-0.40917 0.81815,-10.66973 0.91015,-22.80078 0.12644,-16.66494 -0.23454,-22.0568 -1.47461,-22.05664 -0.9027,1.1e-4 -2.00443,1.65131 -2.44921,3.66797 -3.18182,14.4265 -5.27331,15.63929 -26.99024,15.65429 l -16.91797,0.0117 -0.35937,-31.041014 c -0.24045,-20.84888 0.12923,-31.94969 1.12304,-33.80664 1.41735,-2.64833 2.33105,-2.742995 21.69141,-2.240235 22.64462,0.58804 26.62415,1.792813 31.38867,9.501953 1.52242,2.46333 3.48309,7.577455 4.35742,11.365235 0.93234,4.03912 2.32265,6.886719 3.36133,6.886719 1.378,0 1.76953,-3.697896 1.76953,-16.666016 V 52.597656 Z M 452.91797,84.150391 c -0.34196,-0.01407 -0.66025,-0.01313 -0.94141,0.0059 -0.74974,0.05063 -1.24023,0.225287 -1.24023,0.560547 0,0.54521 0.74934,1.294182 1.66601,1.664062 2.85514,1.15207 7.86171,0.942525 7.09571,-0.296875 -0.60197,-0.973986 -4.1864,-1.83514 -6.58008,-1.933593 z m 250.38086,27.351559 -6.94727,2.4336 c -3.8214,1.33864 -10.69791,3.2059 -15.28125,4.14843 -9.07924,1.86707 -10.33512,3.06563 -4.66797,4.45899 2.01666,0.49583 5.01797,1.77456 6.66797,2.8418 2.9883,1.93289 3,2.0798 3,37.70312 0,40.01767 0.25045,38.95706 -9.66797,40.73438 -2.75,0.49278 -5,1.46786 -5,2.16796 0,0.76367 10.1356,1.27344 25.33399,1.27344 13.93333,0 25.33398,-0.52992 25.33398,-1.17773 0,-1.41569 -4.65415,-2.77959 -9.57226,-2.80469 -7.42356,-0.0378 -7.76172,-1.4914 -7.76172,-33.35937 0,-30.85536 0.53076,-34.24176 6.31836,-40.3086 4.90043,-5.13687 10.9881,-5.99421 17.70312,-2.49414 6.85119,3.57102 10.35501,3.54925 14.22657,-0.0879 7.21911,-6.78201 1.77904,-14.82687 -10.14649,-15.00586 -8.09641,-0.12153 -17.58748,5.51008 -24.10156,14.30078 l -4.66602,6.29688 -0.38672,-10.56055 z m 210.53711,0.15039 c -7.44222,-0.0744 -15.63396,2.49466 -23.31055,7.85352 -4.28397,2.99055 -8.20668,6.09238 -8.7168,6.89258 -1.4974,2.34887 -2.43296,0.35118 -3.31054,-7.0586 -0.74349,-6.27756 -1.09652,-6.87087 -3.62696,-6.1289 -9.82753,2.88159 -22.9315,6.05273 -25.01367,6.05273 -1.34936,0 -2.45508,0.9 -2.45508,2 0,1.38889 1.39767,2 4.57227,2 6.97745,0 8.24935,2.24658 9.18945,16.22461 1.24407,18.4976 0.0979,59.53645 -1.72461,61.73242 -0.83738,1.00898 -3.88817,2.23421 -6.77929,2.72266 -2.89112,0.48845 -5.25782,1.43465 -5.25782,2.10352 0,1.63363 43.61468,1.58587 44.625,-0.0488 0.43032,-0.69628 -1.36329,-1.67003 -3.98632,-2.16211 -8.70869,-1.63375 -8.63868,-1.33249 -8.63868,-36.89649 v -32.13281 l 5.8086,-5.56445 c 13.04063,-12.49512 31.30362,-10.03058 35.55664,4.79883 1.61799,5.64167 1.69522,63.87192 0.0879,66.41015 -0.64573,1.01969 -3.43698,2.22226 -6.20313,2.67188 -2.76616,0.44963 -5.27931,1.56449 -5.58398,2.47851 -0.42746,1.28237 4.49453,1.66211 21.55664,1.66211 13.1522,0 22.11133,-0.51628 22.11133,-1.27344 0,-0.7001 -2.13382,-1.67278 -4.74219,-2.16211 -8.45384,-1.58594 -8.77883,-3.08571 -8.32617,-38.33203 0.4027,-31.3559 0.40113,-31.35616 3.73437,-34.92382 11.60558,-12.4218 30.58694,-12.33034 36.74024,0.17773 2.23605,4.54531 2.59872,8.85525 2.95312,35.17969 0.46268,34.36757 0.0536,36.24886 -8.10351,37.33398 -2.75633,0.36666 -5.13978,1.26666 -5.29883,2 -0.18098,0.83448 7.81664,1.46993 21.37695,1.69922 13.88048,0.23471 21.66598,-0.11554 21.66598,-0.97461 0,-0.73753 -1.6493,-1.73181 -3.666,-2.21094 -8.3617,-1.98665 -8.3318,-1.85962 -8.3418,-36.38672 0,-18.58351 -0.6024,-33.64254 -1.46287,-36.79296 -3.9477,-14.45203 -16.40603,-21.34832 -32.52539,-18.00196 -6.3048,1.30887 -13.97995,5.52903 -25.58203,14.06641 -2.78376,2.04843 -3.00388,1.96476 -5.01172,-1.91797 -4.41082,-8.52959 -12.74197,-12.99608 -22.31054,-13.0918 z M 800.99609,161.7793 c 3.43988,-0.143 3.07422,3.44749 3.07422,13.71093 0,13.33556 -0.20951,14.45009 -3.33398,17.79297 -1.83333,1.96149 -4.95335,4.40913 -6.9336,5.43946 -13.69117,7.12351 -28.84786,-5.14293 -23.55078,-19.06055 2.26585,-5.95331 7.35973,-9.66195 19.54102,-14.22852 5.70597,-2.13908 9.1392,-3.5685 11.20312,-3.65429 z m -5.79492,-49.73242 c -7.79729,-2e-5 -10.3296,0.70792 -20.39062,5.69335 -14.30636,7.08908 -20.74024,13.14562 -20.74024,19.52149 0,4.99801 2.68725,7.33594 8.43164,7.33594 5.95819,0 8.94933,-3.8661 9.80664,-12.66797 0.97618,-10.02243 3.13909,-12.67512 10.30079,-12.63672 7.84688,0.0421 16.16123,4.2135 18.88085,9.47265 2.4675,4.77163 4.08767,18.96696 2.76563,24.23438 -0.93817,3.738 -5.00199,5.66996 -21.51953,10.23828 -15.43368,4.26855 -26.91773,10.02279 -29.33399,14.69531 -1.12156,2.16886 -2,7.35921 -2,11.82813 0,6.63741 0.58055,8.65165 3.47852,12.0957 3.90195,4.6372 7.31881,6.7524 13.18945,8.16406 8.15638,1.9613 21.04583,-2.11397 30.42188,-9.61914 2.7986,-2.24018 5.27129,-3.86241 5.49609,-3.60546 0.2248,0.25693 1.39588,2.40642 2.60156,4.77734 1.20568,2.37092 4.07812,5.28766 6.38477,6.48047 5.19507,2.68648 11.28947,1.19256 19.54687,-4.78907 5.60058,-4.05702 7.63093,-7.82888 3.21485,-5.97265 -5.17649,2.17585 -7.93128,2.05776 -11.0586,-0.47461 l -3.27539,-2.65234 -0.01,-32.45118 c -0.01,-30.234 -0.19851,-32.8162 -2.77735,-37.78515 -4.06337,-7.82938 -12.0499,-11.88281 -23.41406,-11.88281 z m -630.17187,4.7832 c 0.89412,-0.0376 1.78594,-0.0268 2.66992,0.0332 2.35728,0.16001 4.65218,0.67244 6.74609,1.56836 21.66489,9.26978 28.72139,61.10046 10.66797,78.36133 -2.77363,2.65186 -6.35329,5.49247 -7.95508,6.3125 -4.58023,2.34486 -13.93524,1.77907 -18.71093,-1.13281 -6.69555,-4.08246 -13.30779,-15.27751 -16.51368,-27.95508 -5.02952,-19.88907 -2.40907,-39.62954 6.625,-49.89649 3.88314,-4.41306 10.21185,-7.02792 16.47071,-7.29101 z m 2.48437,-4.72656 c -12.87115,-0.10036 -25.84984,4.69712 -35.52148,14.79101 -9.89802,10.33014 -11.92188,15.94252 -11.92188,33.06445 0,13.95158 0.22333,15.14898 4.43164,23.69727 5.09166,10.34264 14.38798,18.40281 26.00782,22.54883 5.19336,1.85303 9.72985,2.35246 18.39648,2.02344 9.76138,-0.37059 12.83421,-1.09276 20.29883,-4.76758 5.58217,-2.74809 10.5002,-6.41024 13.46094,-10.02344 13.60396,-16.60184 16.40523,-40.67716 6.69336,-57.50781 -8.92849,-15.47303 -25.29709,-23.69714 -41.84571,-23.82617 z m 897.60933,5.32812 c 3.9519,0.11929 7.8055,1.34437 10.834,3.6543 5.4166,4.13148 9.1388,12.97116 8.541,20.2832 l -0.4277,5.22852 -21.8476,0.36718 -21.8457,0.36719 0.7988,-4.92383 c 1.3656,-8.41485 7.2361,-18.72758 12.5215,-21.99414 3.4224,-2.11519 7.4739,-3.10171 11.4257,-2.98242 z m 3.7168,-4.83398 c -18.4251,0 -33.3977,9.46843 -41.7285,26.39062 -4.176,8.48266 -4.375,9.58239 -4.375,24.24805 0,12.87908 0.4603,16.35616 2.8496,21.52344 5.8188,12.58449 18.2705,22.47447 31.6231,25.11718 3.0396,0.60159 6.5477,1.15994 7.7949,1.24024 4.4241,0.285 16.4839,-2.89652 22.3984,-5.90821 7.3834,-3.75971 18.2569,-14.55048 16.0411,-15.91992 -0.8482,-0.52418 -2.576,-0.0169 -3.8399,1.12696 -8.3925,7.5951 -28.256,10.26013 -38.2949,5.13867 -11.5521,-5.89347 -19.8339,-19.84605 -20.7832,-35.01563 l -0.4551,-7.27539 31.8496,-0.35742 31.8496,-0.35937 -0.7011,-7.72461 c -0.7651,-8.43723 -5.5389,-19.19832 -10.5332,-23.74219 -6.3874,-5.81146 -13.8513,-8.48242 -23.6954,-8.48242 z m -824.2148,2.66601 c -18.49431,0 -23.984,0.38199 -23.56445,1.64063 0.30083,0.90249 2.60104,2.12985 5.11133,2.72851 2.51026,0.59865 5.8552,2.11052 7.43359,3.35938 3.07949,2.43655 29.79687,38.5058 29.79687,40.22656 0,0.56775 -6.15581,8.15931 -13.68164,16.87109 -10.70087,12.38715 -15.35044,16.71171 -21.33008,19.83985 -4.20541,2.2 -7.64839,4.45 -7.65039,5 -0.002,0.55 8.0961,1 17.9961,1 17.30526,0 23.11332,-1.4105 13.34961,-3.24219 -5.70333,-1.06995 -8.11559,-4.80214 -5.875,-9.08984 2.11015,-4.0381 19.72789,-25 21.01172,-25 1.50978,0 17.72455,22.60972 19.40234,27.05468 1.22845,3.25453 1.05658,4.10925 -1.14453,5.71875 -1.4233,1.04074 -3.67155,1.89258 -4.99805,1.89258 -1.32651,0 -2.41211,0.5846 -2.41211,1.29883 0,0.76809 8.30542,1.46329 20.33203,1.70312 11.18333,0.22302 21.68399,0.53843 23.33399,0.70118 1.9093,0.18833 3,-0.43027 3,-1.70313 0,-1.1 -1.05066,-2.00381 -2.33399,-2.00781 -5.20014,-0.0152 -12.68098,-6.58552 -22.625,-19.87109 -17.14487,-22.90617 -20.24059,-27.37034 -20.30859,-29.28125 -0.0893,-2.51086 22.3278,-28.04474 27.26758,-31.0586 2.20046,-1.34254 5.95065,-2.80935 8.33398,-3.25976 2.41548,-0.45649 4.33203,-1.6378 4.33203,-2.66993 0,-1.48849 -3.53001,-1.85156 -18,-1.85156 -15.11112,0 -18,0.32099 -18,2 0,1.2003 1.23253,2 3.08008,2 1.69317,0 4.21881,0.83385 5.61328,1.85352 3.30794,2.41882 1.88456,5.65401 -8.3164,18.90625 -5.90714,7.67406 -7.93833,9.49003 -9.32422,8.33984 -1.91464,-1.58901 -12.7012,-16.70667 -15.04492,-21.08594 -2.17126,-4.05705 0.4817,-8.01367 5.37304,-8.01367 2.62497,0 3.95313,-0.67194 3.95313,-2 0,-1.70404 -3.56812,-2 -24.11133,-2 z m 526.2207,156 c -4.13494,0 -4.77539,1.97645 -4.77539,14.73438 0,11.70696 0.32502,13.49408 3.02149,16.6289 1.6616,1.93173 5.11094,4.00271 7.66601,4.60157 9.37461,2.19725 18.75452,-1.20854 22.29297,-8.09375 0.93182,-1.81316 1.65492,-8.27051 1.66602,-14.8711 0.0192,-11.37007 -0.0605,-11.66601 -3.1211,-11.66601 -3.03405,0 -3.14491,0.37278 -3.27148,11 -0.072,6.05 -0.15936,11.74934 -0.19336,12.66601 -0.034,0.91666 -1.26186,2.86732 -2.72852,4.33399 -3.93088,3.93087 -12.50013,3.619 -16.72656,-0.60743 -3.0176,-3.01761 -3.27344,-4.26487 -3.27344,-16 0,-7 -0.24995,-12.72656 -0.55664,-12.72656 z m 65.89063,5.03125 9.49023,0.53711 c 8.6984,0.4915 9.80868,0.89458 13.33203,4.83789 6.22679,6.96899 4.49311,15.12173 -4.16992,19.60156 -3.87244,2.00252 -16.10478,2.76241 -17.76367,1.10352 -0.48889,-0.48889 -0.88867,-6.55717 -0.88867,-13.48438 z m 9.05469,-4.84375 c -2.0233,-0.1074 -4.15652,-0.0974 -6.38868,0.0371 l -7.33203,0.44141 -0.37109,17.60547 -0.37305,17.60546 9.03906,0.39454 c 19.66628,0.85975 28.30347,-4.79428 28.35157,-18.5586 0.0358,-10.24244 -8.76272,-16.77359 -22.92578,-17.52539 z m -181.27344,0.13086 c -0.98713,0.027 -1.95435,0.10501 -2.86914,0.24219 -7.22714,1.08378 -11.57813,4.88957 -11.57813,10.12695 0,4.71933 3.25793,7.14263 12.66602,9.41797 3.66667,0.88678 7.71667,2.1473 9,2.80078 3.10936,1.58329 2.96847,5.9925 -0.2461,7.71289 -3.31775,1.77536 -12.21255,1.77406 -16.88867,-0.004 -2.72504,-1.03606 -3.90506,-0.96161 -4.68164,0.29492 -1.30579,2.11281 -1.13497,2.26731 5.05078,4.55859 13.25878,4.91123 29.4362,-3.45386 24.50391,-12.66992 -1.30626,-2.44077 -10.30334,-6.79883 -14.03516,-6.79883 -4.29283,0 -8.70312,-3.13666 -8.70312,-6.18945 0,-3.91151 4.26009,-5.12693 13.96484,-3.98633 5.39559,0.63415 7.2566,0.39232 7.79688,-1.01562 0.90082,-2.34752 -7.0706,-4.67921 -13.98047,-4.49024 z m 290.32031,5.04883 c 3.53022,0.13478 6.88488,1.02423 8.91992,2.625 6.49622,5.10993 6.97568,15.24648 0.97852,20.67383 -1.64693,1.49045 -5.46514,2.67998 -9.74805,3.03515 -6.12946,0.5083 -7.58143,0.12959 -11.21484,-2.92773 -7.45994,-6.27712 -6.90113,-17.37465 1.08398,-21.50391 2.7428,-1.41835 6.45025,-2.03712 9.98047,-1.90234 z M 953.25,271.60547 c -0.74855,0.0314 -1.498,0.10266 -2.24609,0.21484 -12.66122,1.89867 -21.037,11.82501 -18.36133,21.76172 1.55428,5.77213 6.76879,11.28449 12.75976,13.48633 5.28482,1.94231 15.9164,0.88325 20.97852,-2.08984 4.88009,-2.86618 9.02148,-10.13397 9.02148,-15.83008 0,-9.65169 -10.92407,-18.01445 -22.15234,-17.54297 z m -53.625,0.0625 c -1.35695,0.0222 -1.55469,3.20675 -1.55469,17.45312 0,17.25377 0.13,18.14258 2.66602,18.14258 2.52991,0 2.66601,-0.88953 2.66601,-17.33398 0,-9.53333 -0.24995,-17.33203 -0.55664,-17.33203 -0.30669,0 -1.50603,-0.36542 -2.66601,-0.81055 -0.20339,-0.078 -0.38805,-0.12187 -0.55469,-0.11914 z m -177.57422,0.26172 c -13.90969,0 -16.64844,0.32901 -16.64844,2 0,1.47264 1.84578,2.10754 7,2.40429 l 7,0.40235 V 292 c 0,14.37477 0.1566,15.26367 2.66797,15.26367 2.51208,0 2.66602,-0.88953 2.66602,-15.33398 v -15.33203 h 7.43164 c 6.35953,0 7.36503,-0.33713 6.98047,-2.33399 -0.39935,-2.07365 -2.30211,-2.33398 -17.09766,-2.33398 z" />
  </g>
</svg>
