<svg xmlns="http://www.w3.org/2000/svg" viewBox="0 0 900 560" fill="none">
  <rect x="0" y="0" width="900" height="560" rx="32" fill="#F6F7F4"/>
  <path d="M90 408c30-126 144-220 290-220h140c94 0 175 52 218 130l36 66c8 15-3 34-20 34H132c-27 0-49-25-42-50z" fill="#0F2E33"/>
  <path d="M256 310h148c26 0 50 14 62 37l25 45H210l24-44c12-23 36-38 22-38z" fill="#144048"/>
  <circle cx="284" cy="418" r="54" fill="#122B30"/>
  <circle cx="284" cy="418" r="30" fill="#F6F7F4"/>
  <circle cx="650" cy="418" r="54" fill="#122B30"/>
  <circle cx="650" cy="418" r="30" fill="#F6F7F4"/>
  <path d="M540 186h70c44 0 84 23 104 62l16 30H520l20-38z" fill="#C47A45" opacity=".92"/>
  <path d="M155 154c74-54 176-84 300-84 155 0 268 48 338 128" stroke="#C47A45" stroke-width="10" stroke-linecap="round" opacity=".55"/>
  <g opacity=".9">
    <rect x="98" y="98" width="290" height="120" rx="18" fill="#FFFFFF"/>
    <rect x="122" y="126" width="190" height="14" rx="7" fill="#D1D5DB"/>
    <rect x="122" y="152" width="240" height="14" rx="7" fill="#D1D5DB"/>
    <rect x="122" y="178" width="140" height="14" rx="7" fill="#D1D5DB"/>
  </g>
  <g opacity=".9">
    <rect x="512" y="320" width="290" height="120" rx="18" fill="#FFFFFF"/>
    <rect x="536" y="348" width="190" height="14" rx="7" fill="#D1D5DB"/>
    <rect x="536" y="374" width="240" height="14" rx="7" fill="#D1D5DB"/>
    <rect x="536" y="400" width="140" height="14" rx="7" fill="#D1D5DB"/>
  </g>
</svg>
